<svg xmlns="http://www.w3.org/2000/svg" viewBox="0 0 1024 1024" width="1024" height="1024">
  <defs>
    <linearGradient id="arc" x1="0" y1="0" x2="1" y2="1">
      <stop offset="0" stop-color="#a5b4fc"></stop>
      <stop offset="1" stop-color="#67e8f9"></stop>
    </linearGradient>
    <radialGradient id="dotGlow" cx="0.5" cy="0.5" r="0.5">
      <stop offset="0" stop-color="#ffffff" stop-opacity="0.95"></stop>
      <stop offset="0.6" stop-color="#c7d2fe" stop-opacity="0.55"></stop>
      <stop offset="1" stop-color="#818cf8" stop-opacity="0"></stop>
    </radialGradient>
  </defs>
  <g transform="translate(512 512) scale(1.85)">
    <circle r="181" fill="none" stroke="#ffffff" stroke-opacity="0.08" stroke-width="2.5"></circle>
    <g stroke="#ffffff" stroke-linecap="round">
      <line x1="0" y1="-154" x2="0" y2="-133" stroke-width="5.8" stroke-opacity="0.85"></line>
      <line x1="154" y1="0" x2="133" y2="0" stroke-width="5.8" stroke-opacity="0.85"></line>
      <line x1="0" y1="154" x2="0" y2="133" stroke-width="5.8" stroke-opacity="0.85"></line>
      <line x1="-154" y1="0" x2="-133" y2="0" stroke-width="5.8" stroke-opacity="0.85"></line>
      <g stroke-width="2.6" stroke-opacity="0.32">
        <line x1="77.13" y1="-133.59" x2="67.84" y2="-117.49"></line>
        <line x1="133.59" y1="-77.13" x2="117.49" y2="-67.84"></line>
        <line x1="133.59" y1="77.13" x2="117.49" y2="67.84"></line>
        <line x1="77.13" y1="133.59" x2="67.84" y2="117.49"></line>
        <line x1="-77.13" y1="133.59" x2="-67.84" y2="117.49"></line>
        <line x1="-133.59" y1="77.13" x2="-117.49" y2="67.84"></line>
        <line x1="-133.59" y1="-77.13" x2="-117.49" y2="-67.84"></line>
        <line x1="-77.13" y1="-133.59" x2="-67.84" y2="-117.49"></line>
      </g>
    </g>
    <circle r="170" fill="none" stroke="url(#arc)" stroke-width="14.5" stroke-linecap="round" stroke-dasharray="748 1068" transform="rotate(-90)" opacity="0.95" filter="drop-shadow(0 0 16px #6366f180)"></circle>
    <line x1="0" y1="0" x2="-58" y2="-58" stroke="#ffffff" stroke-width="13" stroke-linecap="round" stroke-opacity="0.92"></line>
    <line x1="0" y1="0" x2="74" y2="-80" stroke="#ffffff" stroke-width="9" stroke-linecap="round" stroke-opacity="0.95"></line>
    <circle r="37" fill="url(#dotGlow)" opacity="0.5"></circle>
    <circle r="13.5" fill="#ffffff"></circle>
    <circle r="6.5" fill="#312e81"></circle>
  </g>
</svg>
